<?xml version="1.0" encoding="UTF-8" standalone="no"?>
<!-- Created with Inkscape (http://www.inkscape.org/) -->

<svg
   width="512"
   height="512"
   viewBox="0 0 135.46667 135.46667"
   version="1.1"
   id="svg5"
   inkscape:version="1.1.2 (08b2f3d93c, 2022-04-05)"
   sodipodi:docname="launcher.svg"
   xmlns:inkscape="http://www.inkscape.org/namespaces/inkscape"
   xmlns:sodipodi="http://sodipodi.sourceforge.net/DTD/sodipodi-0.dtd"
   xmlns="http://www.w3.org/2000/svg"
   xmlns:svg="http://www.w3.org/2000/svg">
  <sodipodi:namedview
     id="namedview7"
     pagecolor="#ffffff"
     bordercolor="#666666"
     borderopacity="1.0"
     inkscape:pageshadow="2"
     inkscape:pageopacity="0.0"
     inkscape:pagecheckerboard="0"
     inkscape:document-units="mm"
     showgrid="false"
     width="512px"
     units="px"
     inkscape:zoom="0.29858596"
     inkscape:cx="1204.0084"
     inkscape:cy="450.45655"
     inkscape:window-width="1366"
     inkscape:window-height="704"
     inkscape:window-x="0"
     inkscape:window-y="27"
     inkscape:window-maximized="1"
     inkscape:current-layer="layer1"
     showguides="false" />
  <defs
     id="defs2" />
  <g
     inkscape:label="Layer 1"
     inkscape:groupmode="layer"
     id="layer1">
    <path
       id="rect1822-2"
       style="fill:#7cb342;fill-opacity:1;stroke-width:0.311494"
       d="m 26.335606,88.709974 -2.054092,-0.053 c -1.263895,-0.0326 -2.292746,2.29768 -2.306824,5.22482 l -0.06962,14.475936 c -0.01408,2.92714 0.992106,5.30992 2.256,5.34252 l 2.054093,0.053 z" />
    <path
       id="path2031"
       style="fill:none;fill-opacity:0.795362;stroke:#7cb342;stroke-width:4.39559;stroke-linecap:round;stroke-linejoin:round;stroke-miterlimit:4;stroke-dasharray:none;stroke-opacity:1"
       d="M 65.877499,11.103722 A 17.874216,16.245416 0 0 0 48.056385,26.365143 H 83.717421 A 17.874216,16.245416 0 0 0 65.877499,11.103722 Z" />
    <path
       id="rect31-3"
       style="fill:#7cb342;fill-opacity:1;stroke-width:0.108973"
       d="m 41.388615,93.671954 v 8.508026 c 0,0.1636 0.0046,0.32604 0.01393,0.48754 0.0094,0.16151 0.02352,0.32198 0.04201,0.48119 0.01849,0.15922 0.0413,0.31732 0.06871,0.47405 0.0274,0.15674 0.05934,0.31205 0.09543,0.46611 0.03609,0.15406 0.07645,0.30679 0.120994,0.45798 0.04456,0.15118 0.09332,0.30091 0.146107,0.44904 0.05279,0.14812 0.109509,0.29465 0.170306,0.43952 0.06079,0.14486 0.125692,0.28799 0.194276,0.4294 0.06859,0.14141 0.140956,0.28112 0.217107,0.41888 0.07615,0.13777 0.155989,0.27366 0.239477,0.40758 0.08349,0.13391 0.170562,0.26579 0.261166,0.39566 0.0906,0.12988 0.184674,0.25773 0.282169,0.38337 0.09749,0.12564 0.198324,0.24905 0.302486,0.37027 0.104162,0.12121 0.211744,0.24019 0.322347,0.35677 0.110603,0.11659 0.224246,0.23093 0.341069,0.34269 0.116817,0.11176 0.236739,0.22106 0.359556,0.3278 0.122816,0.10675 0.248555,0.21079 0.37714,0.31234 0.128584,0.10154 0.260132,0.20051 0.39426,0.29664 0.134129,0.0961 0.270791,0.18945 0.410238,0.27999 0.139454,0.0905 0.281673,0.17837 0.426221,0.26311 0.144549,0.0847 0.291637,0.16651 0.441061,0.24526 0.149418,0.0787 0.301144,0.15444 0.455213,0.227 0.154069,0.0726 0.310419,0.14197 0.468908,0.20816 0.158496,0.0662 0.319007,0.12909 0.481691,0.18871 0.162698,0.0596 0.327588,0.11602 0.494256,0.16886 0.166675,0.0528 0.33525,0.10214 0.505664,0.14802 0.170427,0.0459 0.342686,0.0883 0.516628,0.127 0.173948,0.0387 0.349422,0.0738 0.526666,0.10517 0.177244,0.0313 0.356164,0.0589 0.536493,0.0827 0.180323,0.0238 0.362205,0.0439 0.545381,0.0599 0.183176,0.0161 0.367571,0.0281 0.553376,0.0363 0.185819,0.008 0.372931,0.0123 0.561147,0.0123 h 29.785453 c 0.188216,0 0.375335,-0.004 0.56114,-0.0123 0.185812,-0.008 0.370438,-0.0202 0.553614,-0.0363 0.18317,-0.0161 0.365059,-0.0361 0.545388,-0.0599 0.180323,-0.0238 0.359011,-0.0513 0.536262,-0.0827 0.177238,-0.0313 0.352948,-0.0665 0.526888,-0.10517 0.17395,-0.0388 0.34621,-0.0811 0.51663,-0.127 0.17042,-0.0459 0.339,-0.0952 0.50567,-0.14802 0.16666,-0.0528 0.33132,-0.10925 0.49402,-0.16886 0.16269,-0.0596 0.32343,-0.12253 0.48192,-0.18871 0.1585,-0.0662 0.31485,-0.13559 0.46891,-0.20816 0.15408,-0.0726 0.3058,-0.14825 0.45522,-0.227 0.14942,-0.0787 0.29651,-0.16052 0.44105,-0.24526 0.14455,-0.0847 0.28655,-0.17258 0.42599,-0.26311 0.13946,-0.0905 0.27634,-0.18385 0.41047,-0.27999 0.13415,-0.0961 0.26568,-0.1951 0.39426,-0.29664 0.12859,-0.10155 0.25433,-0.20559 0.37714,-0.31234 0.12281,-0.10674 0.24251,-0.21604 0.35933,-0.3278 0.11683,-0.11176 0.2307,-0.2261 0.34129,-0.34269 0.11062,-0.11658 0.21797,-0.23556 0.32213,-0.35677 0.10416,-0.12122 0.20522,-0.24463 0.30272,-0.37027 0.0975,-0.12564 0.19156,-0.25349 0.28217,-0.38337 0.0906,-0.12987 0.17768,-0.26175 0.26116,-0.39566 0.0835,-0.13392 0.16332,-0.26981 0.23948,-0.40758 0.0761,-0.13776 0.14852,-0.27747 0.2171,-0.41888 0.0686,-0.14141 0.13348,-0.28454 0.19428,-0.4294 0.0608,-0.14487 0.11752,-0.2914 0.17031,-0.43952 0.0528,-0.14813 0.10156,-0.29786 0.1461,-0.44904 0.0445,-0.15119 0.0849,-0.30392 0.121,-0.45798 0.0361,-0.15406 0.0678,-0.30937 0.0952,-0.46611 0.0274,-0.15673 0.0505,-0.31483 0.0689,-0.47405 0.0185,-0.15921 0.0324,-0.31968 0.0418,-0.48119 0.009,-0.1615 0.0142,-0.32394 0.0142,-0.48754 v -8.508026 z" />
    <path
       id="rect31-6"
       style="fill:#7cb342;stroke-width:0.465761"
       d="m 34.001094,24.051729 c -3.611242,0 -6.518623,2.907128 -6.518623,6.51837 v 24.809538 c 0,3.611246 2.907381,6.518623 6.518623,6.518623 H 46.98442 V 48.406714 h 9.073214 V 61.89826 H 75.566703 V 48.298103 h 9.07321 V 61.89826 h 13.36488 c 3.611247,0 6.518627,-2.907377 6.518627,-6.518623 V 30.570099 c 0,-3.611242 -2.90738,-6.51837 -6.518627,-6.51837 z m -6.20143,35.920986 c -0.205207,0.894673 -0.317193,1.825591 -0.317193,2.784281 v 46.907274 c 0,6.82775 5.496774,12.32452 12.324516,12.32452 h 52.298816 c 6.82774,0 12.324517,-5.49677 12.324517,-12.32452 V 62.756996 c 0,-0.958602 -0.11203,-1.889431 -0.31719,-2.784029 -0.95313,2.908902 -3.6811,4.999297 -6.916717,4.999297 h -12.5565 v 14.289745 l 0.43472,0.401391 -4.757659,4.638605 -4.889412,-4.513711 0.139141,-0.135579 V 64.972264 H 56.057634 v 14.398362 l 0.434714,0.401385 -4.757655,4.638611 -4.889414,-4.513718 0.139141,-0.135572 V 64.972264 H 34.71637 c -3.235711,0 -5.963656,-2.090518 -6.916706,-4.999549 z M 38.443078,91.140884 H 95.856923 V 102.0473 c 0,0.20971 -0.005,0.41795 -0.0158,0.62498 -0.0104,0.20703 -0.026,0.41273 -0.0465,0.61684 -0.0206,0.20409 -0.0463,0.40675 -0.0768,0.60767 -0.0305,0.20092 -0.0659,0.40002 -0.10607,0.59751 -0.0403,0.19749 -0.0852,0.39326 -0.13482,0.58707 -0.0496,0.19381 -0.10398,0.38575 -0.16279,0.57563 -0.0588,0.18988 -0.12202,0.37772 -0.18976,0.56342 -0.0678,0.1857 -0.14004,0.36918 -0.21646,0.55045 -0.0764,0.18127 -0.15705,0.36037 -0.2419,0.53697 -0.0849,0.17659 -0.17381,0.35079 -0.26684,0.52246 -0.093,0.17167 -0.19004,0.34072 -0.29099,0.5072 -0.10095,0.16649 -0.20576,0.33038 -0.31439,0.49144 -0.10863,0.16106 -0.22124,0.31927 -0.3373,0.47465 -0.11605,0.15537 -0.23567,0.3079 -0.35891,0.45734 -0.12323,0.14945 -0.2501,0.29602 -0.38027,0.43929 -0.13016,0.14327 -0.26354,0.28338 -0.40037,0.42022 -0.13684,0.13684 -0.27694,0.2702 -0.42021,0.40037 -0.14328,0.13016 -0.28984,0.25704 -0.43929,0.38028 -0.14945,0.12324 -0.30198,0.24284 -0.45735,0.35891 -0.15538,0.11605 -0.31358,0.22865 -0.47465,0.33728 -0.16105,0.10863 -0.32495,0.21344 -0.49143,0.3144 -0.16649,0.10095 -0.33555,0.19797 -0.50721,0.29099 -0.17166,0.093 -0.34587,0.18199 -0.52247,0.26683 -0.17659,0.0848 -0.35568,0.16548 -0.53696,0.2419 -0.18128,0.0764 -0.36474,0.14872 -0.55045,0.21647 -0.1857,0.0678 -0.37353,0.13094 -0.56342,0.18975 -0.18988,0.0588 -0.38182,0.11317 -0.57562,0.1628 -0.19382,0.0496 -0.38959,0.0946 -0.58708,0.13481 -0.19749,0.0403 -0.39659,0.0755 -0.5975,0.10607 -0.20093,0.0305 -0.40358,0.0562 -0.60769,0.0768 -0.20409,0.0206 -0.4098,0.0361 -0.61683,0.0466 -0.207032,0.0104 -0.415515,0.0158 -0.625231,0.0158 H 50.556215 c -0.209709,0 -0.418199,-0.005 -0.625225,-0.0158 -0.207033,-0.0104 -0.412485,-0.0259 -0.616582,-0.0466 -0.204105,-0.0206 -0.406765,-0.0462 -0.607682,-0.0768 -0.200923,-0.0305 -0.400267,-0.0658 -0.597758,-0.10607 -0.197492,-0.0402 -0.393008,-0.0852 -0.586822,-0.13481 -0.193814,-0.0497 -0.385748,-0.10398 -0.575632,-0.1628 -0.189877,-0.0588 -0.377712,-0.12201 -0.563414,-0.18975 -0.185703,-0.0678 -0.369431,-0.14005 -0.550707,-0.21647 -0.181269,-0.0764 -0.360114,-0.15705 -0.536711,-0.2419 -0.176591,-0.0848 -0.350798,-0.1738 -0.522465,-0.26683 -0.171666,-0.093 -0.340718,-0.19004 -0.507202,-0.29099 -0.166491,-0.10096 -0.330377,-0.20577 -0.491436,-0.3144 -0.161056,-0.10863 -0.319522,-0.22123 -0.4749,-0.33728 -0.155378,-0.11607 -0.307645,-0.23567 -0.457096,-0.35891 -0.149448,-0.12324 -0.296017,-0.25012 -0.439288,-0.38028 -0.143271,-0.13017 -0.283369,-0.26353 -0.420213,-0.40037 -0.136841,-0.13684 -0.27046,-0.27695 -0.400625,-0.42022 -0.130163,-0.14327 -0.256785,-0.28984 -0.380022,-0.43929 -0.123235,-0.14944 -0.243106,-0.30197 -0.359163,-0.45734 -0.116058,-0.15538 -0.228406,-0.31359 -0.337035,-0.47465 -0.108629,-0.16106 -0.213444,-0.32495 -0.314395,-0.49144 -0.100952,-0.16648 -0.197971,-0.33553 -0.290995,-0.5072 -0.09302,-0.17167 -0.181984,-0.34587 -0.266828,-0.52246 -0.08485,-0.1766 -0.165485,-0.3557 -0.241903,-0.53697 -0.07642,-0.18127 -0.148724,-0.36475 -0.216465,-0.55045 -0.06774,-0.1857 -0.130944,-0.37354 -0.189757,-0.56342 -0.05881,-0.18988 -0.113157,-0.38182 -0.162793,-0.57563 -0.04963,-0.19381 -0.09461,-0.38958 -0.134813,-0.58707 -0.04021,-0.19749 -0.07579,-0.39659 -0.106326,-0.59751 -0.03053,-0.20092 -0.05596,-0.40358 -0.07656,-0.60767 -0.02061,-0.20411 -0.03637,-0.40981 -0.04681,-0.61684 -0.01043,-0.20703 -0.01551,-0.41527 -0.01551,-0.62498 z" />
    <path
       id="rect711-1"
       style="fill:#7cb342;fill-opacity:1;stroke-width:0.369498"
       d="m 48.549273,50.382117 v 27.138 l -0.09056,0.117259 0.862046,1.058161 2.391804,-2.327441 2.187796,2.248592 0.838897,-1.087418 -0.282858,-0.347461 V 50.382117 Z" />
    <path
       id="rect1822-2-0"
       style="fill:#7cb342;fill-opacity:1;stroke-width:0.311494"
       d="m 105.70362,113.69613 2.05477,0.006 c 1.2643,0.004 2.23983,-2.34929 2.18725,-5.27599 l -0.26003,-14.473756 c -0.0526,-2.92671 -1.11276,-5.28596 -2.37706,-5.28978 l -2.05477,-0.006 z" />
    <path
       id="rect711-1-0"
       style="fill:#7cb342;fill-opacity:1;stroke-width:0.369499"
       d="m 77.091879,50.382117 v 27.138 l -0.09056,0.117259 0.862045,1.057909 2.391795,-2.327189 2.188055,2.248592 0.838897,-1.087418 -0.28311,-0.347461 V 50.382117 Z" />
    <rect
       style="fill:#7cb342;fill-opacity:1;stroke-width:0.305963"
       id="rect711-7-6-7"
       width="3.6603177"
       height="3.6603189"
       x="111.48042"
       y="-3.3556955"
       ry="0"
       transform="rotate(45.781537)" />
    <rect
       style="fill:#7cb342;fill-opacity:1;stroke-width:0.305963"
       id="rect711-7-6-7-3"
       width="3.6603177"
       height="3.6603189"
       x="91.574753"
       y="17.100569"
       ry="0"
       transform="rotate(45.781537)" />
  </g>
</svg>
